<?xml version="1.0" encoding="UTF-8" standalone="no"?>
<svg width="6588px" height="3068px" viewBox="0 0 6588 3068" version="1.1" xmlns="http://www.w3.org/2000/svg" xmlns:xlink="http://www.w3.org/1999/xlink" xmlns:sketch="http://www.bohemiancoding.com/sketch/ns">
    <!-- Generator: Sketch 3.2.2 (9983) - http://www.bohemiancoding.com/sketch -->
    <title>moshozen-inverse</title>
    <desc>Created with Sketch.</desc>
    <defs></defs>
    <g id="Page-1" stroke="none" stroke-width="1" fill="none" fill-rule="evenodd" sketch:type="MSPage">
        <g id="Shape-Based-Inverse-Logo" sketch:type="MSLayerGroup" fill="#FFFFFF">
            <path d="M0.0942939892,1063 L289.234329,235.996628 C334.803361,105.65929 483.670187,0 621.736503,0 L6588,0 L6588,2702.99302 C6588,2904.58081 6424.58786,3068 6223.00106,3068 L0.0942939904,3068 L0.0942939892,1063 Z M6421.93446,2692.60908 C6421.93446,2726.01925 6415.93785,2756.00229 6403.94446,2782.55908 C6391.95107,2809.11588 6375.67456,2832.03149 6355.11446,2851.30658 C6334.55436,2870.58168 6310.35377,2885.35903 6282.51196,2895.63908 C6254.67016,2905.91914 6224.90129,2911.05908 6193.20446,2911.05908 C6146.94423,2911.05908 6105.82464,2898.85171 6069.84446,2874.43658 C6033.86428,2850.02146 6008.59287,2815.9693 5994.02946,2772.27908 L5816.69946,2227.43908 C5811.55944,2209.44899 5804.92033,2195.5283 5796.78196,2185.67658 C5788.64359,2175.82487 5777.29287,2170.89908 5762.72946,2170.89908 C5719.03924,2170.89908 5697.19446,2196.59883 5697.19446,2247.99908 L5697.19446,2903.34908 L5531.42946,2903.34908 L5531.42946,2232.57908 C5531.42946,2200.02559 5537.2119,2170.25672 5548.77696,2143.27158 C5560.34202,2116.28645 5576.40436,2093.37085 5596.96446,2074.52408 C5617.52456,2055.67732 5641.72516,2041.11414 5669.56696,2030.83408 C5697.40877,2020.55403 5727.60596,2015.41408 5760.15946,2015.41408 C5805.56302,2015.41408 5846.25428,2027.4073 5882.23446,2051.39408 C5918.21464,2075.38087 5943.48605,2109.21887 5958.04946,2152.90908 L6136.66446,2699.03408 C6142.66116,2717.02417 6149.51442,2730.51654 6157.22446,2739.51158 C6164.9345,2748.50663 6176.07105,2753.00408 6190.63446,2753.00408 C6234.32468,2753.00408 6256.16946,2727.30434 6256.16946,2675.90408 L6256.16946,2017.98408 L6421.93446,2017.98408 L6421.93446,2692.60908 Z M5405.49946,2173.46908 L4939.04446,2173.46908 C4925.33773,2173.46908 4912.48785,2176.25322 4900.49446,2181.82158 C4888.50107,2187.38995 4878.00701,2194.8857 4869.01196,2204.30908 C4860.01692,2213.73246 4852.73532,2224.65486 4847.16696,2237.07658 C4841.5986,2249.49831 4838.81446,2262.56235 4838.81446,2276.26908 C4838.81446,2305.3959 4848.2377,2330.02482 4867.08446,2350.15658 C4885.93122,2370.28835 4910.34598,2380.35408 4940.32946,2380.35408 L5405.49946,2380.35408 L5405.49946,2535.83908 L4939.04446,2535.83908 C4925.33773,2535.83908 4912.48785,2538.62322 4900.49446,2544.19158 C4888.50107,2549.75995 4878.00701,2557.2557 4869.01196,2566.67908 C4860.01692,2576.10246 4852.73532,2587.02486 4847.16696,2599.44658 C4841.5986,2611.86831 4838.81446,2624.93235 4838.81446,2638.63908 C4838.81446,2671.19258 4848.2377,2697.74898 4867.08446,2718.30908 C4885.93122,2738.86919 4910.34598,2749.14908 4940.32946,2749.14908 L5405.49946,2749.14908 L5405.49946,2903.34908 L4963.45946,2903.34908 C4912.0592,2903.34908 4868.58381,2895.85333 4833.03196,2880.86158 C4797.48012,2865.86984 4768.78207,2845.95254 4746.93696,2821.10908 C4725.09185,2796.26563 4709.24368,2768.21007 4699.39196,2736.94158 C4689.54024,2705.67309 4684.61446,2673.76258 4684.61446,2641.20908 C4684.61446,2605.2289 4691.89605,2570.74842 4706.45946,2537.76658 C4721.02287,2504.78475 4745.43762,2478.01419 4779.70446,2457.45408 C4745.43762,2436.89398 4721.02287,2409.90925 4706.45946,2376.49908 C4691.89605,2343.08892 4684.61446,2310.53591 4684.61446,2278.83908 C4684.61446,2241.14556 4690.18274,2206.23675 4701.31946,2174.11158 C4712.45618,2141.98642 4729.37518,2114.3592 4752.07696,2091.22908 C4774.77874,2068.09897 4803.69095,2050.10915 4838.81446,2037.25908 C4873.93797,2024.40902 4915.48589,2017.98408 4963.45946,2017.98408 L5405.49946,2017.98408 L5405.49946,2173.46908 Z M4372.35946,2285.26408 C4386.92287,2278.41072 4399.13024,2268.98748 4408.98196,2256.99408 C4418.83368,2245.00069 4423.75946,2233.00748 4423.75946,2221.01408 C4423.75946,2207.30735 4419.04784,2195.95663 4409.62446,2186.96158 C4400.20108,2177.96654 4385.63789,2173.46908 4365.93446,2173.46908 L3774.83446,2173.46908 L3774.83446,2017.98408 L4360.79446,2017.98408 C4432.75482,2017.98408 4486.51012,2036.83056 4522.06196,2074.52408 C4557.61381,2112.21761 4575.38946,2161.04712 4575.38946,2221.01408 C4575.38946,2232.15081 4574.5328,2246.0715 4572.81946,2262.77658 C4571.10612,2279.48167 4565.75201,2297.25732 4556.75696,2316.10408 C4547.76192,2334.95085 4533.62706,2353.79732 4514.35196,2372.64408 C4495.07686,2391.49085 4468.3063,2408.62401 4434.03946,2424.04408 L3947.02446,2636.06908 C3929.89104,2643.77912 3917.25533,2653.20236 3909.11696,2664.33908 C3900.97859,2675.47581 3896.90946,2687.04069 3896.90946,2699.03408 C3896.90946,2715.31083 3902.47774,2727.73237 3913.61446,2736.29908 C3924.75118,2744.86579 3938.02938,2749.14908 3953.44946,2749.14908 L4554.82946,2749.14908 L4554.82946,2903.34908 L3957.30446,2903.34908 C3885.3441,2903.34908 3831.37464,2884.50261 3795.39446,2846.80908 C3759.41428,2809.11556 3741.42446,2760.71438 3741.42446,2701.60408 C3741.42446,2686.18401 3743.13778,2669.26501 3746.56446,2650.84658 C3749.99114,2632.42816 3756.84441,2614.01001 3767.12446,2595.59158 C3777.40451,2577.17316 3791.9677,2559.3975 3810.81446,2542.26408 C3829.66122,2525.13067 3854.50431,2510.13915 3885.34446,2497.28908 L4372.35946,2285.26408 Z M3445.4,2387.4 C3445.4,2316.33298 3422.00023,2263.25018 3375.2,2228.15 C3328.39977,2193.04982 3254.30051,2175.5 3152.9,2175.5 C2959.63237,2175.5 2863,2245.6993 2863,2386.1 L2863,2536.9 C2863,2677.3007 2959.63237,2747.5 3152.9,2747.5 C3254.30051,2747.5 3328.39977,2729.73351 3375.2,2694.2 C3422.00023,2658.66649 3445.4,2605.80035 3445.4,2535.6 L3445.4,2387.4 Z M3602.7,2495.3 C3602.7,2764.83468 3454.50148,2900.89999 3158.1,2903.5 L3154.2,2903.5 C2856.06518,2903.5 2707,2767.86802 2707,2496.6 L2707,2426.4 C2707,2155.13198 2856.06518,2019.5 3154.2,2019.5 L3158.1,2019.5 C3454.50148,2020.36667 3602.7,2156.43198 3602.7,2427.7 L3602.7,2495.3 Z M3078.8,1746.3 L3078.8,1330.3 L2707,1330.3 L2707,1173 L3602.7,1173 L3602.7,1330.3 L3236.1,1330.3 L3236.1,1746.3 L3602.7,1746.3 L3602.7,1902.3 L2707,1902.3 L2707,1746.3 L3078.8,1746.3 Z M2699.56946,850.149237 C2699.56946,883.949406 2705.63607,914.282436 2717.76946,941.149237 C2729.90285,968.016038 2746.36936,991.19914 2767.16946,1010.69924 C2787.96956,1030.19933 2812.45265,1045.14919 2840.61946,1055.54924 C2868.78627,1065.94929 2898.90263,1071.14924 2930.96946,1071.14924 C2977.76969,1071.14924 3019.36928,1058.79936 3055.76946,1034.09924 C3092.16964,1009.39911 3117.73605,974.949458 3132.46946,930.749237 L3311.86946,379.549237 C3317.06949,361.349146 3323.78609,347.265954 3332.01946,337.299237 C3340.25284,327.332521 3351.73605,322.349237 3366.46946,322.349237 C3410.66968,322.349237 3432.76946,348.348977 3432.76946,400.349237 L3432.76946,1063.34924 L3600.46946,1063.34924 L3600.46946,384.749237 C3600.46946,351.815739 3594.61952,321.699374 3582.91946,294.399237 C3571.2194,267.099101 3554.96956,243.915999 3534.16946,224.849237 C3513.36936,205.782475 3488.88627,191.049289 3460.71946,180.649237 C3432.55265,170.249185 3402.00296,165.049237 3369.06946,165.049237 C3323.1359,165.049237 3281.96964,177.182449 3245.56946,201.449237 C3209.16928,225.716025 3183.60287,259.949016 3168.86946,304.149237 L2988.16946,856.649237 C2982.10276,874.849328 2975.1695,888.499192 2967.36946,897.599237 C2959.56942,906.699283 2948.30287,911.249237 2933.56946,911.249237 C2889.36924,911.249237 2867.26946,885.249497 2867.26946,833.249237 L2867.26946,167.649237 L2699.56946,167.649237 L2699.56946,850.149237 Z M2086.16946,324.949237 C2015.10244,324.949237 1962.01964,348.349003 1926.91946,395.149237 C1891.81929,441.949471 1874.26946,516.04873 1874.26946,617.449237 C1874.26946,810.71687 1944.46876,907.349237 2084.86946,907.349237 L2235.66946,907.349237 C2376.07016,907.349237 2446.26946,810.71687 2446.26946,617.449237 C2446.26946,516.04873 2428.50297,441.949471 2392.96946,395.149237 C2357.43595,348.349003 2304.56981,324.949237 2234.36946,324.949237 L2086.16946,324.949237 Z M2194.06946,167.649237 C2463.60414,167.649237 2599.66945,315.847755 2602.26946,612.249237 L2602.26946,616.149237 C2602.26946,914.284061 2466.63748,1063.34924 2195.36946,1063.34924 L2125.16946,1063.34924 C1853.90144,1063.34924 1718.26946,914.284061 1718.26946,616.149237 L1718.26946,612.249237 C1719.13613,315.847755 1855.20144,167.649237 2126.46946,167.649237 L2194.06946,167.649237 Z M436.469461,304.149237 C452.069539,259.949016 477.852614,225.716025 513.819461,201.449237 C549.786307,177.182449 591.169227,165.049237 637.969461,165.049237 C670.036288,165.049237 700.152653,170.249185 728.319461,180.649237 C756.486268,191.049289 780.969357,205.782475 801.769461,224.849237 C822.569565,243.915999 839.036067,267.099101 851.169461,294.399237 C863.302855,321.699374 869.369461,351.815739 869.369461,384.749237 L869.369461,835.849237 C869.369461,887.849497 891.46924,913.849237 935.669461,913.849237 C950.402868,913.849237 961.669422,909.299283 969.469461,900.199237 C977.2695,891.099192 984.202764,877.449328 990.269461,859.249237 L1169.66946,304.149237 C1184.40287,259.949016 1210.18594,225.716025 1247.01946,201.449237 C1283.85298,177.182449 1325.2359,165.049237 1371.16946,165.049237 C1403.23629,165.049237 1433.35265,170.249185 1461.51946,180.649237 C1489.68627,191.049289 1514.16936,205.782475 1534.96946,224.849237 C1555.76956,243.915999 1572.23607,267.099101 1584.36946,294.399237 C1596.50285,321.699374 1602.56946,351.815739 1602.56946,384.749237 L1602.56946,1063.34924 L1436.16946,1063.34924 L1436.16946,400.349237 C1436.16946,348.348977 1413.63635,322.349237 1368.56946,322.349237 C1353.83605,322.349237 1342.78616,327.332521 1335.41946,337.299237 C1328.05276,347.265954 1321.33616,361.349146 1315.26946,379.549237 L1133.26946,933.349237 C1121.13607,977.549458 1096.21965,1011.99911 1058.51946,1036.69924 C1020.81927,1061.39936 979.003024,1073.74924 933.069461,1073.74924 C900.135963,1073.74924 869.802933,1068.54929 842.069461,1058.14924 C814.335989,1047.74919 790.069565,1033.016 769.269461,1013.94924 C748.469357,994.882475 732.219519,971.699374 720.519461,944.399237 C708.819402,917.099101 702.969461,886.982735 702.969461,854.049237 L702.969461,400.349237 C702.969461,348.348977 680.436353,322.349237 635.369461,322.349237 C620.636054,322.349237 609.802829,327.332521 602.869461,337.299237 C595.936093,347.265954 589.002829,361.349146 582.069461,379.549237 L342.869461,1063.34924 L166.069461,1063.34924 L436.469461,304.149237 Z" id="Logo" sketch:type="MSShapeGroup"></path>
        </g>
    </g>
</svg>